<svg id="letter-E-grey" viewBox="0 0 32 32">
<path fill="#757575" style="fill: var(--color3, #757575)" d="M10.783 7.812h15.652v-4.226h-20.87v24.83h20.87v-4.226h-15.652v-5.811h7.304v-4.755h-7.304v-5.811z"></path>
<path fill="#757575" style="fill: var(--color3, #757575)" d="M28.5 32.001c0.828 0 1.5-0.682 1.5-1.524v-28.952c0-0.842-0.672-1.524-1.5-1.524h-25c-0.829 0-1.5 0.682-1.5 1.524v28.952c0 0.842 0.671 1.524 1.5 1.524h25zM26.586 9.397h-14.238v2.642h5.89c0.864 0 1.414 0.765 1.414 1.64v4.755c0 0.875-0.55 1.529-1.414 1.529h-5.89v2.641h14.238c0.864 0 1.414 0.766 1.414 1.64v4.226c0 0.875-0.55 1.529-1.414 1.529h-20.869c-0.865 0-1.717-0.655-1.717-1.529v-24.83c0-0.875 0.852-1.64 1.717-1.64h20.869c0.864 0 1.414 0.766 1.414 1.64v4.226c0 0.875-0.55 1.529-1.414 1.529z"></path>
<path fill="#fff" style="fill: var(--color2, #fff)" d="M28 28.471v-4.226c0-0.875-0.55-1.64-1.414-1.64h-14.238v-2.642h5.89c0.864 0 1.414-0.655 1.414-1.529v-4.755c0-0.875-0.55-1.64-1.414-1.64h-5.89v-2.642h14.238c0.864 0 1.414-0.655 1.414-1.529v-4.226c0-0.875-0.55-1.64-1.414-1.64h-20.869c-0.865 0-1.717 0.766-1.717 1.64v24.83c0 0.875 0.852 1.529 1.717 1.529h20.869c0.864 0 1.414-0.655 1.414-1.529zM26.435 7.812h-15.652v5.811h7.304v4.755h-7.304v5.811h15.652v4.226h-20.87v-24.83h20.87v4.226z"></path>
</svg>